<svg width="67" height="67" viewBox="0 0 67 67" fill="none" xmlns="http://www.w3.org/2000/svg">
<circle cx="33.5" cy="33.5" r="33.5" fill="#85BC5D"/>
<path d="M52.4083 33.7639C52.0941 33.7733 51.8519 34.0475 51.8519 34.3618V43.6384C51.8519 43.7441 51.7662 43.8298 51.6605 43.8298H33.642C33.538 43.7043 33.3819 43.6235 33.2062 43.6215C33.2041 43.6215 33.2019 43.6215 33.1998 43.6215C32.8857 43.6215 32.6293 43.8745 32.6259 44.1894C32.6251 44.2609 32.6248 44.3323 32.6248 44.4039C32.6248 44.721 32.8818 44.978 33.1989 44.978H51.6605C52.4004 44.978 53.0001 44.3782 53.0001 43.6384V34.3378C53.0001 34.0148 52.7335 33.7542 52.4083 33.7639Z" fill="white"/>
<path d="M51.6604 23.022H14.3396C13.6009 23.022 13 23.6229 13 24.3616V43.6384C13 44.3771 13.6009 44.978 14.3396 44.978H30.3551C30.6721 44.978 30.9292 44.721 30.9292 44.4038C30.9292 44.0867 30.6722 43.8297 30.3551 43.8297H22.6808C22.487 40.7073 20.7209 37.915 17.9593 36.4011C18.0235 36.1908 18.053 35.9717 18.053 35.7175C18.053 35.1317 17.8879 34.8158 17.7552 34.562C17.651 34.3625 17.588 34.2422 17.588 33.9384C17.588 33.6346 17.651 33.5142 17.7552 33.3147C17.8879 33.0609 18.053 32.7449 18.053 32.1592C18.053 31.9487 18.0323 31.7611 17.9888 31.5837C20.7321 30.0663 22.4873 27.2788 22.6808 24.1702H43.3191C43.37 24.9946 43.5309 25.8002 43.7995 26.5764C43.3101 26.8138 42.8251 27.0733 42.357 27.3502C42.0841 27.5117 41.9938 27.8638 42.1552 28.1366C42.2624 28.3178 42.4536 28.4185 42.6498 28.4185C42.7492 28.4185 42.8499 28.3927 42.9416 28.3384C43.4087 28.0621 44.6822 27.426 44.7445 27.4002C45.0373 27.2786 45.1762 26.9428 45.0546 26.6499C44.7259 25.8578 44.5299 25.026 44.4695 24.1702H51.6605C51.766 24.1702 51.8519 24.256 51.8519 24.3616V24.6117C51.4648 24.6228 51.0777 24.644 50.6952 24.6771C50.3793 24.7045 50.1455 24.9828 50.1729 25.2986C50.1987 25.5976 50.4495 25.8231 50.7441 25.8231C50.7607 25.8231 50.7775 25.8224 50.7944 25.821C51.1441 25.7907 51.498 25.7711 51.852 25.7604V31.3859C51.852 31.703 52.109 31.96 52.4261 31.96C52.7432 31.96 53 31.7031 53 31.386V24.3616C53 23.6229 52.3991 23.022 51.6604 23.022V23.022ZM17.2623 30.6708C16.8691 30.8763 16.6892 31.3444 16.8437 31.7596C16.8722 31.8363 16.9049 31.951 16.9049 32.1592C16.9049 32.463 16.842 32.5833 16.7377 32.7828C16.6051 33.0366 16.4399 33.3525 16.4399 33.9384C16.4399 34.5242 16.6051 34.8401 16.7377 35.0939C16.842 35.2934 16.9049 35.4137 16.9049 35.7175C16.9049 35.9508 16.8642 36.0755 16.8202 36.1755C16.6337 36.5988 16.8116 37.0977 17.2252 37.311C19.7221 38.5991 21.3338 41.0617 21.5305 43.8297H14.3396C14.2341 43.8297 14.1482 43.7439 14.1482 43.6383V24.3616C14.1482 24.256 14.2341 24.1702 14.3396 24.1702H21.5304C21.3343 26.9224 19.7369 29.3779 17.2623 30.6708V30.6708Z" fill="white"/>
<path d="M16.1437 29.5609C16.2263 29.5609 16.3103 29.5429 16.3899 29.5051C17.7957 28.8365 18.9203 27.6866 19.5564 26.2671C19.6861 25.9778 19.5567 25.6381 19.2673 25.5085C18.978 25.3785 18.6383 25.5082 18.5086 25.7975C17.984 26.9682 17.0564 27.9167 15.8967 28.4681C15.6104 28.6043 15.4887 28.9468 15.6249 29.2331C15.7232 29.44 15.929 29.5609 16.1437 29.5609V29.5609Z" fill="white"/>
<path d="M15.6246 38.7862C15.4885 39.0725 15.6102 39.415 15.8965 39.5512C17.0562 40.1027 17.9838 41.0511 18.5084 42.2217C18.6038 42.4348 18.8133 42.5612 19.0326 42.5612C19.111 42.5612 19.1908 42.545 19.2671 42.5108C19.5564 42.3812 19.6859 42.0415 19.5562 41.7521C18.9201 40.3327 17.7956 39.1827 16.3896 38.5142C16.1033 38.3782 15.7608 38.4998 15.6246 38.7862V38.7862Z" fill="white"/>
<path d="M42.3006 25.7264C42.3006 25.4093 42.0435 25.1523 41.7264 25.1523H35.0677C34.7249 25.1523 34.3935 25.0287 34.1345 24.8044C33.601 24.3424 32.7964 24.3427 32.2631 24.8044C32.004 25.0288 31.6726 25.1523 31.3299 25.1523H24.2817C23.9646 25.1523 23.7075 25.4093 23.7075 25.7264C23.7075 26.0436 23.9646 26.3006 24.2817 26.3006H31.3299C31.9486 26.3006 32.547 26.0775 33.0147 25.6725C33.1196 25.5816 33.2779 25.5817 33.3828 25.6725C33.8505 26.0775 34.4489 26.3006 35.0677 26.3006H41.7264C42.0436 26.3006 42.3006 26.0436 42.3006 25.7264V25.7264Z" fill="white"/>
<path d="M24.1286 42.7904H30.2785C30.5955 42.7904 30.8526 42.5333 30.8526 42.2162C30.8526 41.8991 30.5956 41.6421 30.2785 41.6421H24.1286C23.8116 41.6421 23.5544 41.8991 23.5544 42.2162C23.5544 42.5333 23.8115 42.7904 24.1286 42.7904Z" fill="white"/>
<path d="M15.4179 35.6071C15.7349 35.6071 15.992 35.35 15.992 35.0329V33.0092C15.992 32.6921 15.735 32.4351 15.4179 32.4351C15.1008 32.4351 14.8438 32.6921 14.8438 33.0092V35.0329C14.8438 35.3501 15.1008 35.6071 15.4179 35.6071Z" fill="white"/>
<path d="M43.2542 42.1048C43.3268 42.1352 43.4021 42.1496 43.4762 42.1496C43.7005 42.1496 43.9136 42.0173 44.0058 41.7975L48.2178 31.7612C48.3405 31.4688 48.203 31.1323 47.9106 31.0096C47.6184 30.8872 47.2817 31.0244 47.159 31.3169L42.9469 41.3531C42.8243 41.6455 42.9619 41.9819 43.2542 42.1048V42.1048Z" fill="white"/>
<path d="M42.67 30.4971C41.3273 30.4971 40.2349 31.7248 40.2349 33.2339C40.2349 34.7429 41.3273 35.9706 42.67 35.9706C44.0128 35.9706 45.1052 34.7429 45.1052 33.2339C45.1052 31.7248 44.0128 30.4971 42.67 30.4971ZM42.67 34.8224C41.9604 34.8224 41.3831 34.1097 41.3831 33.2339C41.3831 32.3579 41.9604 31.6453 42.67 31.6453C43.3796 31.6453 43.957 32.3579 43.957 33.2339C43.957 34.1098 43.3796 34.8224 42.67 34.8224Z" fill="white"/>
<path d="M45.9231 40.0962C45.9231 41.6052 47.0155 42.833 48.3583 42.833C49.7011 42.833 50.7935 41.6052 50.7935 40.0962C50.7935 38.5871 49.7011 37.3594 48.3583 37.3594C47.0155 37.3594 45.9231 38.5871 45.9231 40.0962ZM49.6453 40.0962C49.6453 40.9721 49.0679 41.6848 48.3583 41.6848C47.6487 41.6848 47.0713 40.9721 47.0713 40.0962C47.0713 39.2202 47.6487 38.5076 48.3583 38.5076C49.068 38.5076 49.6453 39.2202 49.6453 40.0962Z" fill="white"/>
<path d="M37.0191 31.9642C36.6575 32.4117 36.3111 32.8806 35.9893 33.3582C35.8122 33.6212 35.8818 33.978 36.1448 34.1551C36.2432 34.2213 36.3546 34.2531 36.465 34.2531C36.6495 34.2531 36.8308 34.1642 36.9417 33.9995C37.2448 33.5495 37.5713 33.1076 37.9121 32.686C38.1114 32.4393 38.0731 32.0778 37.8264 31.8785C37.5799 31.6792 37.2184 31.7177 37.0191 31.9642Z" fill="white"/>
<path d="M32.833 41.5213C32.7872 41.8352 33.0044 42.1266 33.3181 42.1724C33.3462 42.1764 33.3741 42.1784 33.4018 42.1784C33.6821 42.1784 33.9275 41.9727 33.9691 41.6871C34.0475 41.15 34.1505 40.6105 34.2755 40.0838C34.3486 39.7752 34.1578 39.4659 33.8493 39.3927C33.5408 39.3198 33.2315 39.5103 33.1582 39.8188C33.1508 39.8503 33.1441 39.8822 33.1368 39.9138C33.0911 39.9148 33.0453 39.9161 32.9999 39.9161C29.7377 39.9161 27.0837 37.2621 27.0837 33.9999C27.0837 30.7377 29.7377 28.0838 32.9999 28.0838C34.1855 28.0838 35.3291 28.433 36.3073 29.0938C36.57 29.2713 36.9268 29.2022 37.1044 28.9395C37.2819 28.6767 37.2127 28.3198 36.95 28.1423C35.7813 27.3529 34.4154 26.9355 32.9999 26.9355C29.1046 26.9355 25.9355 30.1046 25.9355 33.9999C25.9355 37.8638 29.0537 41.0124 32.9056 41.0631C32.8797 41.2159 32.8552 41.3687 32.833 41.5213V41.5213Z" fill="white"/>
<path d="M34.2806 38.0038C34.3486 38.0302 34.4186 38.0427 34.4876 38.0427C34.7179 38.0427 34.9351 37.9032 35.0232 37.6755C35.2168 37.175 35.4352 36.6762 35.6725 36.1928C35.7997 35.9336 35.7241 35.612 35.484 35.4515C35.3746 35.3783 35.2523 35.3482 35.134 35.3543C35.1609 34.4049 34.6031 33.606 33.6458 33.2677C33.5329 33.2277 33.4178 33.1863 33.3026 33.1433V31.1439C33.5477 31.2274 33.691 31.3485 33.7022 31.3583L33.6965 31.3531L33.7969 31.4112C34.3784 31.7474 34.9595 30.9742 34.4749 30.5092C34.4482 30.4844 34.0144 30.094 33.3026 29.9606V29.6211C33.3026 29.3068 33.0604 29.0327 32.7461 29.0232C32.421 29.0134 32.1544 29.2741 32.1544 29.597V30.0007C32.1093 30.012 32.0636 30.0245 32.0176 30.0384C31.3097 30.2517 30.7811 30.8563 30.6379 31.6162C30.5067 32.3125 30.7322 32.9858 31.2262 33.3734C31.4658 33.5613 31.7592 33.7336 32.1544 33.9134V36.5355C31.8621 36.4995 31.6472 36.4087 31.3125 36.1913C31.0511 36.0215 30.6919 36.0745 30.5123 36.3292C30.324 36.5961 30.3958 36.9637 30.6668 37.141C31.2482 37.5213 31.6557 37.65 32.1544 37.6894V38.0727C32.1544 38.3871 32.3966 38.6613 32.7108 38.6706C33.036 38.6804 33.3026 38.4198 33.3026 38.0968V37.6358C33.5265 37.5815 33.7326 37.4972 33.9194 37.3895C33.8834 37.6475 34.0271 37.9058 34.2806 38.0038V38.0038ZM31.935 32.4699C31.7819 32.3497 31.7157 32.0981 31.7664 31.8288C31.806 31.6184 31.928 31.3729 32.1544 31.2277V32.62C32.0744 32.5711 32.0004 32.5211 31.935 32.4699V32.4699ZM33.3026 36.42V34.3652C34.0483 34.6517 34.0019 35.3032 33.969 35.4989C33.9096 35.8525 33.6834 36.2254 33.3026 36.42Z" fill="white"/>
<path d="M40.956 28.9606C40.7592 28.7119 40.398 28.6698 40.1495 28.8666C39.6982 29.2236 39.257 29.6051 38.8383 30.0003C38.6077 30.2179 38.5971 30.5812 38.8149 30.8119C38.9278 30.9316 39.0799 30.992 39.2324 30.992C39.3738 30.992 39.5155 30.9401 39.6264 30.8353C40.021 30.463 40.4367 30.1035 40.862 29.7671C41.1105 29.5703 41.1527 29.2093 40.956 28.9606Z" fill="white"/>
<path d="M48.0494 25.0878C47.4878 25.2146 46.9251 25.3679 46.3769 25.5436C46.0749 25.6404 45.9086 25.9637 46.0053 26.2656C46.0834 26.5092 46.3091 26.6646 46.5519 26.6646C46.6099 26.6646 46.669 26.6557 46.7273 26.6371C47.2434 26.4717 47.7733 26.3273 48.3022 26.208C48.6114 26.1381 48.8055 25.8309 48.7359 25.5215C48.6661 25.2122 48.3586 25.0184 48.0494 25.0878V25.0878Z" fill="white"/>
</svg>
