<svg width="24" height="31" viewBox="0 0 24 31" fill="none" xmlns="http://www.w3.org/2000/svg">
<path d="M23.6519 25.658C23.583 21.445 19.2755 20.2003 16.1302 19.2914C15.7632 19.1854 15.4103 19.0834 15.0796 18.9815V17.2435C15.7226 16.8405 16.286 16.3217 16.7405 15.7167H18.6565C19.5941 15.7167 20.3569 14.9539 20.3569 14.0163V11.9579C20.4706 11.693 20.5337 11.4014 20.5337 11.0952V10.455C20.5337 10.1491 20.4706 9.85774 20.3569 9.59296V8.53109C20.3569 3.82706 16.53 0 11.826 0C7.12294 0 3.29679 3.82706 3.29679 8.53115V9.56263C3.29679 9.57074 3.2977 9.57855 3.298 9.58661C3.1826 9.85313 3.1183 10.1467 3.1183 10.4551V11.0953C3.1183 12.3054 4.10207 13.29 5.31125 13.29H5.81161C6.15819 14.9519 7.17847 16.3693 8.57244 17.2432V18.9815C8.24167 19.0834 7.8888 19.1853 7.52183 19.2914C4.37653 20.2003 0.0689631 21.4451 6.05139e-05 25.658C-3.32624e-08 25.6614 0 25.6646 0 25.668V30.3945C0 30.7289 0.27113 31 0.605471 31H2.40057C2.73491 31 3.00604 30.7289 3.00604 30.3945C3.00604 30.0601 2.73491 29.7891 2.40057 29.7891H1.21088V25.673C1.23637 24.2031 1.91159 23.1012 3.33572 22.2054C4.27547 21.6143 5.42436 21.1931 6.55683 20.8408L8.01971 23.691C8.18276 24.0087 8.60023 24.1166 8.89691 23.9165L9.54919 23.4765L10.1092 25.5813L9.1497 29.789H7.83752C7.50318 29.789 7.23205 30.0601 7.23205 30.3945C7.23205 30.7289 7.50318 30.9999 7.83752 30.9999H23.0465C23.3809 30.9999 23.652 30.7289 23.652 30.3945V25.6679C23.652 25.6647 23.652 25.6614 23.6519 25.658V25.658ZM15.794 20.4547C15.8339 20.4662 15.8745 20.478 15.9147 20.4896L14.868 22.5309L12.9093 21.2101L14.5689 20.0906C14.9545 20.212 15.3645 20.3306 15.794 20.4547ZM11.8264 21.9405L13.0405 22.7592L12.4538 24.9647H11.1982L10.6117 22.7598L11.8264 21.9405ZM11.8263 20.4799L9.78332 19.1023V17.8276C10.4228 18.0538 11.11 18.1778 11.8259 18.1778C12.5418 18.1778 13.2292 18.0542 13.8686 17.828V19.1023L11.8263 20.4799ZM16.7587 8.64189C16.7504 8.63662 16.7422 8.63135 16.7339 8.62609C15.4915 7.83522 14.4185 7.15219 12.7372 7.63324C12.7216 7.63772 12.7061 7.6428 12.6909 7.64849C12.3345 7.78236 12.0104 7.90715 11.6969 8.02782C9.78217 8.76486 8.73677 9.16738 6.89323 9.11555V8.63069C6.89323 5.91067 9.10604 3.69779 11.8259 3.69779C14.5458 3.69779 16.7587 5.91067 16.7587 8.63069V8.64189H16.7587ZM19.146 14.0163C19.146 14.2862 18.9264 14.5058 18.6565 14.5058H17.4499C17.6203 14.1195 17.7523 13.7127 17.8404 13.2899H18.3408C18.6251 13.2899 18.8965 13.2349 19.146 13.1359V14.0163H19.146ZM19.3228 11.0952C19.3228 11.6376 18.8823 12.079 18.3407 12.079H17.9691C17.9692 12.064 17.9697 9.47296 17.9697 9.47296H18.3408C18.8823 9.47296 19.3228 9.9135 19.3228 10.455V11.0952H19.3228ZM5.31125 12.079C4.76978 12.079 4.32924 11.6377 4.32924 11.0953V10.4551C4.32924 9.91356 4.76972 9.47302 5.31125 9.47302H5.68235C5.68235 9.47302 5.68283 12.064 5.68295 12.079H5.31125ZM5.69367 8.26202H5.31119C5.02813 8.26202 4.75779 8.31651 4.50919 8.4146C4.57173 4.43181 7.82965 1.21094 11.826 1.21094C15.8235 1.21094 19.0823 4.43217 19.1445 8.41526C18.8954 8.31675 18.6244 8.26202 18.3407 8.26202H17.9583C17.7669 5.04527 15.0898 2.48685 11.826 2.48685C8.56215 2.48685 5.885 5.04533 5.69367 8.26202ZM6.92968 12.623C6.92962 12.6224 6.9295 12.6218 6.92943 12.6212C6.90649 12.4285 6.89329 12.2328 6.89329 12.034V10.3264C8.96479 10.3769 10.2005 9.90151 12.1319 9.15799C12.4361 9.04089 12.7505 8.91986 13.093 8.79108C14.2367 8.47181 14.8948 8.89086 16.0836 9.64764C16.2899 9.77896 16.5162 9.92288 16.7587 10.0707V12.034C16.7587 12.9344 16.5151 13.7785 16.092 14.5058H11.826C11.4917 14.5058 11.2205 14.7769 11.2205 15.1113C11.2205 15.4457 11.4917 15.7168 11.826 15.7168H15.1031C14.2311 16.4936 13.083 16.9669 11.826 16.9669C9.30549 16.9669 7.22182 15.0662 6.92968 12.623V12.623ZM8.78545 22.531L7.73762 20.4895C7.7777 20.4779 7.81815 20.4662 7.85799 20.4547C8.28751 20.3306 8.69753 20.2119 9.08322 20.0906L10.7435 21.2102L8.78545 22.531ZM10.3918 29.7891L11.2157 26.1756H12.4364L13.2617 29.7891H10.3918ZM22.4411 29.7891H14.5038L13.5428 25.5812L14.1031 23.4756L14.7569 23.9165C15.0537 24.1166 15.4712 24.0087 15.6342 23.6908L17.0954 20.8409C18.2278 21.1932 19.3767 21.6144 20.3163 22.2054C21.7404 23.1011 22.4157 24.2031 22.4412 25.673V29.7891H22.4411Z" fill="white"/>
<path d="M20.0502 26.7616H16.9988C16.6644 26.7616 16.3933 27.0326 16.3933 27.367C16.3933 27.7014 16.6644 27.9725 16.9988 27.9725H20.0502C20.3845 27.9725 20.6556 27.7014 20.6556 27.367C20.6556 27.0326 20.3846 26.7616 20.0502 26.7616Z" fill="white"/>
<path d="M5.11914 29.7891C4.7848 29.7891 4.51367 30.0601 4.51367 30.3945C4.51367 30.7289 4.7848 31 5.11914 31H5.12084C5.45518 31 5.7254 30.7289 5.7254 30.3945C5.7254 30.0601 5.45348 29.7891 5.11914 29.7891Z" fill="white"/>
</svg>
