<svg width="11" height="11" viewBox="0 0 11 11" fill="none" xmlns="http://www.w3.org/2000/svg">
<path d="M5.5 11C8.53743 11 11 8.53743 11 5.5C11 2.46257 8.53743 0 5.5 0C2.46257 0 0 2.46257 0 5.5C0 8.53743 2.46257 11 5.5 11ZM3.08423 5.37704C3.12336 5.33759 3.16988 5.30623 3.22113 5.28476C3.27239 5.26329 3.32736 5.25212 3.38293 5.2519C3.4385 5.25168 3.49357 5.26241 3.54499 5.28347C3.59641 5.30454 3.64318 5.33552 3.68262 5.37466L5.07692 6.75812V3.22596C5.07692 3.11375 5.1215 3.00614 5.20084 2.9268C5.28018 2.84746 5.38779 2.80288 5.5 2.80288C5.61221 2.80288 5.71982 2.84746 5.79916 2.9268C5.8785 3.00614 5.92308 3.11375 5.92308 3.22596V6.75812L7.31738 5.37466C7.39712 5.29563 7.50498 5.2515 7.61725 5.252C7.72952 5.2525 7.837 5.29757 7.91603 5.37731C7.99507 5.45705 8.03919 5.56491 8.0387 5.67718C8.0382 5.78945 7.99313 5.89693 7.91339 5.97596L5.798 8.07522C5.71876 8.15385 5.61164 8.19798 5.5 8.19798C5.38836 8.19798 5.28124 8.15385 5.202 8.07522L3.08661 5.97596C3.04708 5.93682 3.01565 5.89027 2.99413 5.83897C2.97262 5.78767 2.96143 5.73263 2.9612 5.677C2.96098 5.62137 2.97174 5.56624 2.99285 5.51477C3.01396 5.4633 3.04501 5.4165 3.08423 5.37704Z" fill="white"/>
</svg>
