<svg width="16" height="22" viewBox="0 0 16 22" fill="none" xmlns="http://www.w3.org/2000/svg">
<path d="M16 2.35714C15.9993 1.73219 15.7463 1.13302 15.2963 0.691109C14.8464 0.2492 14.2363 0.000649978 13.6 0H2.4C1.76368 0.000649978 1.15362 0.2492 0.703675 0.691109C0.253731 1.13302 0.000661796 1.73219 0 2.35714V19.6429C0.000661796 20.2678 0.253731 20.867 0.703675 21.3089C1.15362 21.7508 1.76368 21.9993 2.4 22H13.6C14.2363 21.9993 14.8464 21.7508 15.2963 21.3089C15.7463 20.867 15.9993 20.2678 16 19.6429V2.35714ZM3.6 19.6429C3.36266 19.6429 3.13066 19.5737 2.93332 19.4442C2.73598 19.3147 2.58217 19.1307 2.49134 18.9153C2.40052 18.6999 2.37676 18.463 2.42306 18.2344C2.46936 18.0057 2.58365 17.7957 2.75147 17.6309C2.91929 17.4661 3.13311 17.3538 3.36589 17.3084C3.59867 17.2629 3.83995 17.2862 4.05922 17.3754C4.27849 17.4646 4.46591 17.6157 4.59776 17.8095C4.72962 18.0033 4.8 18.2312 4.8 18.4643C4.8 18.7769 4.67357 19.0766 4.44853 19.2977C4.22348 19.5187 3.91826 19.6429 3.6 19.6429ZM3.6 15.7143C3.36266 15.7143 3.13066 15.6452 2.93332 15.5157C2.73598 15.3862 2.58217 15.2021 2.49134 14.9867C2.40052 14.7714 2.37676 14.5344 2.42306 14.3058C2.46936 14.0772 2.58365 13.8672 2.75147 13.7023C2.91929 13.5375 3.13311 13.4253 3.36589 13.3798C3.59867 13.3343 3.83995 13.3577 4.05922 13.4469C4.27849 13.5361 4.46591 13.6871 4.59776 13.8809C4.72962 14.0747 4.8 14.3026 4.8 14.5357C4.8 14.8483 4.67357 15.1481 4.44853 15.3691C4.22348 15.5901 3.91826 15.7143 3.6 15.7143ZM3.6 11.7857C3.36266 11.7857 3.13066 11.7166 2.93332 11.5871C2.73598 11.4576 2.58217 11.2735 2.49134 11.0582C2.40052 10.8428 2.37676 10.6058 2.42306 10.3772C2.46936 10.1486 2.58365 9.93859 2.75147 9.77377C2.91929 9.60894 3.13311 9.49669 3.36589 9.45122C3.59867 9.40574 3.83995 9.42908 4.05922 9.51828C4.27849 9.60749 4.46591 9.75855 4.59776 9.95236C4.72962 10.1462 4.8 10.374 4.8 10.6071C4.8 10.9197 4.67357 11.2195 4.44853 11.4405C4.22348 11.6615 3.91826 11.7857 3.6 11.7857ZM8 19.6429C7.76266 19.6429 7.53065 19.5737 7.33332 19.4442C7.13598 19.3147 6.98217 19.1307 6.89134 18.9153C6.80052 18.6999 6.77676 18.463 6.82306 18.2344C6.86936 18.0057 6.98365 17.7957 7.15147 17.6309C7.31929 17.4661 7.53311 17.3538 7.76589 17.3084C7.99867 17.2629 8.23995 17.2862 8.45922 17.3754C8.67849 17.4646 8.86591 17.6157 8.99776 17.8095C9.12962 18.0033 9.2 18.2312 9.2 18.4643C9.2 18.7769 9.07357 19.0766 8.84853 19.2977C8.62348 19.5187 8.31826 19.6429 8 19.6429ZM8 15.7143C7.76266 15.7143 7.53065 15.6452 7.33332 15.5157C7.13598 15.3862 6.98217 15.2021 6.89134 14.9867C6.80052 14.7714 6.77676 14.5344 6.82306 14.3058C6.86936 14.0772 6.98365 13.8672 7.15147 13.7023C7.31929 13.5375 7.53311 13.4253 7.76589 13.3798C7.99867 13.3343 8.23995 13.3577 8.45922 13.4469C8.67849 13.5361 8.86591 13.6871 8.99776 13.8809C9.12962 14.0747 9.2 14.3026 9.2 14.5357C9.2 14.8483 9.07357 15.1481 8.84853 15.3691C8.62348 15.5901 8.31826 15.7143 8 15.7143ZM8 11.7857C7.76266 11.7857 7.53065 11.7166 7.33332 11.5871C7.13598 11.4576 6.98217 11.2735 6.89134 11.0582C6.80052 10.8428 6.77676 10.6058 6.82306 10.3772C6.86936 10.1486 6.98365 9.93859 7.15147 9.77377C7.31929 9.60894 7.53311 9.49669 7.76589 9.45122C7.99867 9.40574 8.23995 9.42908 8.45922 9.51828C8.67849 9.60749 8.86591 9.75855 8.99776 9.95236C9.12962 10.1462 9.2 10.374 9.2 10.6071C9.2 10.9197 9.07357 11.2195 8.84853 11.4405C8.62348 11.6615 8.31826 11.7857 8 11.7857ZM13.6 18.4643C13.6 18.7769 13.4736 19.0766 13.2485 19.2977C13.0235 19.5187 12.7183 19.6429 12.4 19.6429C12.0817 19.6429 11.7765 19.5187 11.5515 19.2977C11.3264 19.0766 11.2 18.7769 11.2 18.4643V14.5357C11.2 14.2231 11.3264 13.9234 11.5515 13.7023C11.7765 13.4813 12.0817 13.3571 12.4 13.3571C12.7183 13.3571 13.0235 13.4813 13.2485 13.7023C13.4736 13.9234 13.6 14.2231 13.6 14.5357V18.4643ZM12.4 11.7857C12.1627 11.7857 11.9307 11.7166 11.7333 11.5871C11.536 11.4576 11.3822 11.2735 11.2913 11.0582C11.2005 10.8428 11.1768 10.6058 11.2231 10.3772C11.2694 10.1486 11.3836 9.93859 11.5515 9.77377C11.7193 9.60894 11.9331 9.49669 12.1659 9.45122C12.3987 9.40574 12.6399 9.42908 12.8592 9.51828C13.0785 9.60749 13.2659 9.75855 13.3978 9.95236C13.5296 10.1462 13.6 10.374 13.6 10.6071C13.6 10.9197 13.4736 11.2195 13.2485 11.4405C13.0235 11.6615 12.7183 11.7857 12.4 11.7857ZM13.3655 6.84112C13.2155 6.98849 13.0121 7.07133 12.8 7.07143H3.2C2.98783 7.07143 2.78434 6.98865 2.63431 6.8413C2.48429 6.69395 2.4 6.4941 2.4 6.28571V3.14286C2.4 2.93447 2.48429 2.73462 2.63431 2.58727C2.78434 2.43992 2.98783 2.35714 3.2 2.35714H12.8C13.0122 2.35714 13.2157 2.43992 13.3657 2.58727C13.5157 2.73462 13.6 2.93447 13.6 3.14286V6.28571C13.5999 6.49406 13.5156 6.69384 13.3655 6.84112Z" fill="white"/>
</svg>
