<svg width="67" height="67" viewBox="0 0 67 67" fill="none" xmlns="http://www.w3.org/2000/svg">
<circle cx="33.5" cy="33.5" r="33.5" fill="#85BC5D"/>
<path d="M23.3335 40.3335C21.1275 40.3335 19.3335 42.1275 19.3335 44.3335C19.3335 46.5395 21.1275 48.3335 23.3335 48.3335C25.5395 48.3335 27.3335 46.5395 27.3335 44.3335C27.3335 42.1275 25.5394 40.3335 23.3335 40.3335ZM23.3335 47.0001C21.8628 47.0001 20.6669 45.8041 20.6669 44.3335C20.6669 42.8628 21.8629 41.6669 23.3335 41.6669C24.8041 41.6669 26.0001 42.8629 26.0001 44.3335C26.0001 45.8041 24.8041 47.0001 23.3335 47.0001Z" fill="white"/>
<path d="M46 40.3335C43.794 40.3335 42 42.1275 42 44.3335C42 46.5395 43.794 48.3335 46 48.3335C48.206 48.3335 50 46.5395 50 44.3335C50 42.1275 48.206 40.3335 46 40.3335ZM46 47.0001C44.5293 47.0001 43.3334 45.8041 43.3334 44.3335C43.3334 42.8628 44.5294 41.6669 46 41.6669C47.4707 41.6669 48.6666 42.8629 48.6666 44.3335C48.6666 45.8041 47.4707 47.0001 46 47.0001Z" fill="white"/>
<path d="M53.8941 36.6394L47.8941 27.306C47.7715 27.1153 47.5601 27 47.3334 27H40.0001C39.6315 27 39.3335 27.2987 39.3335 27.6666V44.3333C39.3335 44.702 39.6315 44.9999 40.0001 44.9999H42.6668V43.6666H40.6668V28.3334H46.9694L52.6668 37.196V43.6667H49.3334V45H53.3334C53.7021 45 54.0001 44.702 54.0001 44.3334V37C54.0001 36.8727 53.9635 36.7466 53.8941 36.6394Z" fill="white"/>
<path d="M43.3333 35.6665V30.9999H48.6666V29.6665H42.6666C42.298 29.6665 42 29.9652 42 30.3331V36.3331C42 36.7018 42.298 36.9998 42.6666 36.9998H52.6666V35.6664H43.3333V35.6665Z" fill="white"/>
<path d="M40 22.3335H14.6666C14.2987 22.3335 14 22.6322 14 23.0001V44.3335C14 44.7022 14.2987 45.0001 14.6666 45.0001H20V43.6668H15.3334V23.6668H39.3334V43.6668H26.6666V45.0001H40C40.3687 45.0001 40.6666 44.7022 40.6666 44.3335V23.0001C40.6666 22.6322 40.3687 22.3335 40 22.3335Z" fill="white"/>
<path d="M18.6667 41H14.6667V42.3334H18.6667V41Z" fill="white"/>
<path d="M39.3333 41H28V42.3334H39.3333V41Z" fill="white"/>
<path d="M53.3334 41H50.6667V42.3334H53.3334V41Z" fill="white"/>
<path d="M39.9999 25H16.6665V26.3334H39.9999V25Z" fill="white"/>
<path d="M24.0001 43.6665H22.6667V44.9999H24.0001V43.6665Z" fill="white"/>
<path d="M46.6666 43.6665H45.3333V44.9999H46.6666V43.6665Z" fill="white"/>
<path d="M25.9999 19.6665H16.6665V20.9999H25.9999V19.6665Z" fill="white"/>
<path d="M15.3334 19.6665H14V20.9999H15.3334V19.6665Z" fill="white"/>
</svg>
