<svg width="67" height="67" viewBox="0 0 67 67" fill="none" xmlns="http://www.w3.org/2000/svg">
<circle cx="33.5" cy="33.5" r="33.5" fill="#85BC5D"/>
<path d="M49.6667 14.6665H21.6667C19.8265 14.6688 18.3356 16.1597 18.3333 17.9998V43.9998H13.6667C13.2985 43.9998 13 44.2983 13 44.6665V45.9998C13.0023 47.84 14.4932 49.3309 16.3333 49.3332H37.016V52.6665C37.016 52.9191 37.1585 53.1499 37.3844 53.2629C37.6104 53.3758 37.8805 53.3514 38.0827 53.1997L40.3493 51.4998L42.6159 53.1997C42.7311 53.2866 42.8717 53.3335 43.016 53.3332C43.1195 53.3341 43.2217 53.3114 43.3148 53.2664C43.5417 53.1528 43.6842 52.9201 43.6826 52.6665V49.3332H44.3333C46.1735 49.3309 47.6644 47.84 47.6667 45.9998V19.9998H52.3333C52.7015 19.9998 53 19.7013 53 19.3332V17.9998C52.9977 16.1597 51.5068 14.6688 49.6667 14.6665ZM37.016 47.9998H16.3333C15.2288 47.9998 14.3333 47.1043 14.3333 45.9998V45.3332H37.016V47.9998ZM42.3493 51.3332L40.7493 50.1333C40.5124 49.9552 40.1865 49.9552 39.9492 50.1333L38.3493 51.3332V43.8872C38.4782 43.8973 38.6077 43.895 38.736 43.8797C39.1208 44.3761 39.7135 44.6665 40.3415 44.6665C40.9694 44.6665 41.5618 44.3761 41.9466 43.8797C42.0794 43.8957 42.2135 43.8983 42.3467 43.8872L42.3493 51.3332ZM43.2067 40.6532C43.029 40.7163 42.8861 40.8521 42.8141 41.0262C42.7419 41.2007 42.7467 41.3973 42.8281 41.5679C42.9541 41.8322 42.9007 42.1473 42.6943 42.355C42.4876 42.5627 42.1729 42.618 41.9079 42.4933C41.7376 42.4119 41.5407 42.4067 41.3662 42.4787C41.1914 42.5509 41.056 42.6938 40.9925 42.8719C40.8952 43.148 40.6341 43.3328 40.3415 43.3328C40.0485 43.3328 39.7874 43.148 39.6901 42.8719C39.627 42.6938 39.4912 42.5509 39.3167 42.4787C39.1419 42.4067 38.945 42.4119 38.7747 42.4933C38.5098 42.618 38.195 42.5627 37.9886 42.355C37.7819 42.1473 37.7285 41.8322 37.8548 41.5679C37.9359 41.3976 37.9411 41.2007 37.8688 41.0265C37.7969 40.8521 37.6543 40.7166 37.4766 40.6532C37.2002 40.5549 37.0153 40.2931 37.0153 39.9998C37.0153 39.7065 37.2002 39.4448 37.4766 39.3465C37.6543 39.283 37.7966 39.1476 37.8685 38.9735C37.9408 38.7993 37.9355 38.6027 37.8548 38.4325C37.7279 38.1681 37.7813 37.8527 37.988 37.6447C38.1943 37.437 38.5094 37.3813 38.7747 37.5063C38.945 37.5877 39.1419 37.5929 39.3167 37.521C39.4912 37.4487 39.627 37.3058 39.6901 37.1278C39.7874 36.8517 40.0485 36.6668 40.3415 36.6668C40.6341 36.6668 40.8952 36.8517 40.9925 37.1278C41.056 37.3058 41.1914 37.4487 41.3662 37.521C41.5407 37.5929 41.7376 37.5877 41.9079 37.5063C42.1729 37.3817 42.4876 37.437 42.6943 37.6447C42.9007 37.8524 42.9541 38.1675 42.8281 38.4318C42.7467 38.6024 42.7419 38.799 42.8141 38.9735C42.8861 39.1476 43.029 39.2834 43.2067 39.3465C43.4824 39.4455 43.6667 39.7069 43.6667 39.9998C43.6667 40.2928 43.4824 40.5542 43.2067 40.6532V40.6532ZM46.9486 16.0832C46.9108 16.1366 46.8773 16.1932 46.8428 16.2492C46.7715 16.3631 46.7077 16.481 46.6507 16.6024C46.6208 16.6691 46.5928 16.7306 46.5667 16.7957C46.5173 16.9266 46.4756 17.0601 46.4427 17.1958C46.4274 17.258 46.4079 17.3179 46.3962 17.381C46.3558 17.5851 46.335 17.7922 46.3333 17.9998V45.9998C46.3333 47.1043 45.4378 47.9998 44.3333 47.9998C44.111 47.9956 43.8913 47.9543 43.6826 47.8771V43.2397C44.0973 42.8035 44.293 42.2036 44.2161 41.6066C44.7116 41.2209 45.0013 40.6278 45.0013 39.9998C45.0013 39.3719 44.7116 38.7788 44.2161 38.3931C44.2949 37.7707 44.0817 37.1466 43.6387 36.702C43.1956 36.2577 42.5723 36.0428 41.9492 36.12C41.5645 35.6235 40.972 35.3332 40.3441 35.3332C39.7161 35.3332 39.1234 35.6235 38.7386 36.12C38.1159 36.0431 37.4925 36.258 37.0495 36.7023C36.6068 37.1466 36.3936 37.7707 36.472 38.3931C35.9766 38.7788 35.6865 39.3719 35.6865 39.9998C35.6865 40.6278 35.9766 41.2209 36.472 41.6066C36.3932 42.2121 36.5951 42.8205 37.0199 43.2593V43.9998H19.6667V17.9998C19.6667 16.8953 20.5622 15.9998 21.6667 15.9998H47C46.9814 16.0259 46.9674 16.0558 46.9486 16.0832V16.0832ZM51.6667 18.6665H47.6667V17.9998C47.6667 16.8953 48.5622 15.9998 49.6667 15.9998C50.7712 15.9998 51.6667 16.8953 51.6667 17.9998V18.6665Z" fill="white"/>
<path d="M34.9998 20H37.6664V21.3333H34.9998V20Z" fill="white"/>
<path d="M28.3333 20H33.6666V21.3333H28.3333V20Z" fill="white"/>
<path d="M26.3333 23.3335H39.6666V24.6668H26.3333V23.3335Z" fill="white"/>
<path d="M22.9998 27.3335H26.3331V28.6668H22.9998V27.3335Z" fill="white"/>
<path d="M22.9998 30.6665H30.3331V31.9998H22.9998V30.6665Z" fill="white"/>
<path d="M27.6667 27.3335H43.0001V28.6668H27.6667V27.3335Z" fill="white"/>
<path d="M31.667 30.6665H43.0003V31.9998H31.667V30.6665Z" fill="white"/>
<path d="M22.9998 34H36.3331V35.3333H22.9998V34Z" fill="white"/>
<path d="M22.9998 37.3335H34.3331V38.6668H22.9998V37.3335Z" fill="white"/>
</svg>
