<svg width="67" height="67" viewBox="0 0 67 67" fill="none" xmlns="http://www.w3.org/2000/svg">
<circle cx="33.5" cy="33.5" r="33.5" fill="#85BC5D"/>
<path d="M54.75 26.835C54.75 25.2719 53.4781 24 51.915 24C51.1581 24 50.4456 24.295 49.9106 24.8306L48.0581 26.6831L46 28.7413V22.7C48.1169 22.395 49.75 20.5744 49.75 18.375C49.75 15.9625 47.7875 14 45.375 14H20.375C17.9625 14 16 15.9625 16 18.375V49.625C16 49.97 16.28 50.25 16.625 50.25H19.75V52.125C19.75 52.47 20.03 52.75 20.375 52.75H45.375C45.72 52.75 46 52.47 46 52.125V36.7588L52.0669 30.6919L52.7088 30.05C52.385 31.6625 51.5956 33.145 50.4069 34.3344L47.4337 37.3075L48.3175 38.1913L51.2906 35.2181C53.0644 33.4444 54.0563 31.1019 54.1144 28.6025C54.5188 28.1013 54.75 27.4887 54.75 26.835V26.835ZM50.7944 25.7144C51.0938 25.415 51.4919 25.25 51.915 25.25C52.7888 25.25 53.5 25.9612 53.5 26.835C53.5 27.2581 53.335 27.6563 53.0356 27.9556L51.625 29.3663L49.3838 27.125L50.7944 25.7144ZM48.5 28.0087L49.1787 28.6875L41.3125 36.5537L40.6338 35.875L48.5 28.0087ZM33.6356 44.5019L34.9213 41.93L36.82 43.8288L34.2481 45.1144L33.6356 44.5019ZM35.6338 40.875L39.75 36.7588L41.9912 39L37.875 43.1162L35.6338 40.875ZM45.375 15.25C47.0981 15.25 48.5 16.6519 48.5 18.375C48.5 20.0981 47.0981 21.5 45.375 21.5H23.4313C24.2438 20.705 24.75 19.5987 24.75 18.375C24.75 17.1513 24.2438 16.045 23.4313 15.25H45.375ZM21 21.4369V19.625C21 19.2806 21.2806 19 21.625 19H23.4369C23.1875 20.2225 22.2225 21.1875 21 21.4369V21.4369ZM17.25 49V18.375C17.25 16.6519 18.6519 15.25 20.375 15.25C21.8838 15.25 23.1463 16.3256 23.4369 17.75H21.625C20.5912 17.75 19.75 18.5912 19.75 19.625V49H17.25ZM44.75 51.5H21V22.75H44.75V29.9913L41.9912 32.75H23.5V34H40.7412L39.4912 35.25H23.5V36.5H38.2412L34.3081 40.4331C34.2594 40.4819 34.2275 40.54 34.1981 40.5987L34.1913 40.595L32.3163 44.345C32.1963 44.5856 32.2431 44.8763 32.4338 45.0663L32.6163 45.25L31.1831 46.6831L32.0669 47.5669L33.5 46.1338L33.6831 46.3169C33.8031 46.4369 33.9631 46.5 34.125 46.5C34.2194 46.5 34.3156 46.4781 34.4044 46.4344L38.1544 44.5594L38.1506 44.5525C38.2094 44.5231 38.2675 44.4913 38.3163 44.4425L43.3163 39.4425L44.75 38.0088V51.5ZM42.875 38.1162L42.1963 37.4375L50.0625 29.5712L50.7412 30.25L42.875 38.1162Z" fill="white"/>
<path d="M23.5 25.25H42.25V26.5H23.5V25.25Z" fill="white"/>
<path d="M23.5 27.75H42.25V29H23.5V27.75Z" fill="white"/>
<path d="M23.5 30.25H42.25V31.5H23.5V30.25Z" fill="white"/>
<path d="M23.5 45.25H30.375V46.5H23.5V45.25Z" fill="white"/>
<path d="M23.5 47.75H42.25V49H23.5V47.75Z" fill="white"/>
</svg>
