<svg width="67" height="67" viewBox="0 0 67 67" fill="none" xmlns="http://www.w3.org/2000/svg">
<circle cx="33.5" cy="33.5" r="33.5" fill="#85BC5D"/>
<path d="M51.1644 18.1227L44.2033 15.2226C43.4397 14.9046 42.564 14.9047 41.8004 15.2227L38.4582 16.6148C38.1595 16.7393 38.0182 17.0823 38.1426 17.3811C38.2671 17.6798 38.61 17.8212 38.9089 17.6967L42.2511 16.3045C42.728 16.1058 43.2754 16.1057 43.7528 16.3044L50.7135 19.2043C51.3905 19.4868 51.8281 20.1218 51.8281 20.8221V45.8807C51.8281 46.8551 50.9911 47.6479 49.9625 47.6479H49.0125C48.6888 47.6479 48.4265 47.9101 48.4265 48.2338C48.4265 48.5575 48.6888 48.8197 49.0125 48.8197H49.9625C51.6373 48.8197 53 47.5013 53 45.8807V20.8221C53 19.6474 52.2795 18.5879 51.1644 18.1227V18.1227Z" fill="white"/>
<path d="M46.4586 47.6479H36.6133C37.0187 47.1872 37.2406 46.6026 37.2406 45.9839C37.2406 45.3665 37.0171 44.8006 36.6473 44.3619C36.8805 44.2429 37.0964 44.0872 37.287 43.8966C37.763 43.4206 38.025 42.7877 38.025 42.1144C38.025 41.4725 37.7834 40.8862 37.387 40.4408C37.5833 40.3296 37.7661 40.1918 37.9298 40.0279C38.4058 39.552 38.6679 38.9191 38.6679 38.2456C38.6679 37.6056 38.4278 37.0208 38.0336 36.5758C38.2332 36.4637 38.4191 36.3242 38.5859 36.1579C39.0615 35.6811 39.3234 35.0484 39.3234 34.376C39.3234 32.9858 38.1927 31.8549 36.803 31.8549H34.1756V20.8221C34.1756 20.1218 34.6132 19.4867 35.2899 19.2044L36.3556 18.7607C36.6544 18.6363 36.7957 18.2933 36.6713 17.9945C36.5469 17.6958 36.2039 17.5542 35.9052 17.6788L34.8391 18.1227C33.7241 18.5878 33.0038 19.6474 33.0038 20.8221V31.855H30.5555C31.3708 29.2787 31.3014 26.5901 30.35 23.4695C30.2055 22.9969 29.918 22.5922 29.5184 22.299C29.1211 22.0076 28.6503 21.8534 28.1568 21.8534C27.521 21.8534 26.9298 22.1073 26.492 22.5683C26.0545 23.0293 25.8316 23.6327 25.8646 24.2674C26.0478 27.7906 24.4227 29.0033 22.1734 30.6818C21.4328 31.2344 20.6234 31.8387 19.828 32.5799V31.8119C19.828 31.4883 19.5657 31.226 19.242 31.226H13.5859C13.2623 31.226 13 31.4883 13 31.8119V48.4299C13 48.7536 13.2623 49.0158 13.5859 49.0158H19.2422C19.5659 49.0158 19.8281 48.7536 19.8281 48.4299V46.9558C20.941 47.0617 21.7538 47.2835 22.5435 47.8887C23.062 48.2861 23.701 48.5049 24.343 48.5049H34.6766C35.0988 48.7107 35.5669 48.8197 36.0413 48.8197H46.4585C46.7822 48.8197 47.0445 48.5575 47.0445 48.2338C47.0445 47.9101 46.7822 47.6479 46.4586 47.6479V47.6479ZM23.2564 46.9586C22.1516 46.1119 20.9708 45.8767 19.8281 45.778V38.9362C19.8281 38.6126 19.5659 38.3503 19.2422 38.3503C18.9185 38.3503 18.6563 38.6126 18.6563 38.9362V47.844H14.1719V32.3979H18.6563V36.3832C18.6563 36.7069 18.9185 36.9691 19.2422 36.9691C19.5659 36.9691 19.8281 36.7069 19.8281 36.3832V34.2445C20.8083 33.1629 21.8578 32.3797 22.8744 31.6211C25.1251 29.9416 27.2509 28.3552 27.0352 24.2066C27.019 23.8961 27.128 23.6008 27.3422 23.3753C27.5564 23.1496 27.8458 23.0254 28.157 23.0254C28.3995 23.0254 28.6305 23.1009 28.8252 23.2439C29.0197 23.3865 29.1595 23.5831 29.2295 23.8119C30.1984 26.9904 30.1833 29.6647 29.1817 32.2279C29.1113 32.4082 29.1345 32.6116 29.2436 32.7715C29.3527 32.9315 29.5338 33.0271 29.7274 33.0271H36.8031C37.5467 33.0271 38.1516 33.6323 38.1516 34.3763C38.1516 34.7361 38.0113 35.0749 37.7573 35.3295C37.5018 35.5844 37.163 35.7247 36.8031 35.7247H34.3961C34.0724 35.7247 33.8102 35.987 33.8102 36.3107C33.8102 36.6344 34.0724 36.8966 34.3961 36.8966H36.1477C36.8912 36.8966 37.4961 37.5019 37.4961 38.2459C37.4961 38.6063 37.3559 38.945 37.1013 39.1996C36.8467 39.4542 36.508 39.5944 36.1477 39.5944H34.3961C34.0724 39.5944 33.8102 39.8566 33.8102 40.1803C33.8102 40.504 34.0724 40.7662 34.3961 40.7662H35.5046C36.2482 40.7662 36.8531 41.3711 36.8531 42.1147C36.8531 42.475 36.7129 42.8137 36.4584 43.0683C36.2032 43.3235 35.8645 43.4639 35.5046 43.4639H34.7202H33.753C33.4294 43.4639 33.1671 43.7262 33.1671 44.0498C33.1671 44.3735 33.4294 44.6358 33.753 44.6358H34.7202C35.4638 44.6358 36.0687 45.2407 36.0687 45.9842C36.0687 46.3445 35.9284 46.6836 35.6745 46.9381C35.4365 47.1755 35.0605 47.327 34.7792 47.332C34.7598 47.3323 24.343 47.3334 24.343 47.3334C23.9573 47.333 23.5714 47.2001 23.2564 46.9586V46.9586Z" fill="white"/>
<path d="M45.1166 21.0824C45.1166 19.8511 44.1149 18.8494 42.8836 18.8494C41.6524 18.8494 40.6506 19.8511 40.6506 21.0824C40.6506 22.3137 41.6524 23.3154 42.8836 23.3154C44.1149 23.3154 45.1166 22.3137 45.1166 21.0824ZM41.8225 21.0824C41.8225 20.4973 42.2985 20.0213 42.8836 20.0213C43.4687 20.0213 43.9447 20.4973 43.9447 21.0824C43.9447 21.6675 43.4687 22.1435 42.8836 22.1435C42.2985 22.1435 41.8225 21.6676 41.8225 21.0824Z" fill="white"/>
<path d="M43.2496 41.0754H42.1987C41.6452 41.0754 41.1949 40.625 41.1949 40.0715C41.1949 39.7478 40.9326 39.4855 40.609 39.4855C40.2853 39.4855 40.023 39.7478 40.023 40.0715C40.023 41.2509 40.9665 42.2134 42.1382 42.2457V43.5424C42.1382 43.8661 42.4005 44.1283 42.7241 44.1283C43.0478 44.1283 43.3101 43.8661 43.3101 43.5424V42.2457C44.4819 42.2134 45.4253 41.2509 45.4253 40.0715V39.2603C45.4253 38.5077 44.9444 37.8459 44.2287 37.6132L41.5818 36.7535C41.3504 36.6782 41.1949 36.4643 41.1949 36.2211V35.0596C41.1949 34.61 41.5606 34.2443 42.0101 34.2443H43.4383C43.8878 34.2443 44.2535 34.61 44.2535 35.0596C44.2535 35.3832 44.5158 35.6455 44.8394 35.6455C45.1631 35.6455 45.4254 35.3832 45.4254 35.0596C45.4254 33.9639 44.534 33.0724 43.4383 33.0724H43.3101V31.7772C43.3101 31.4536 43.0478 31.1913 42.7241 31.1913C42.4005 31.1913 42.1382 31.4536 42.1382 31.7772V33.0724H42.0101C40.9144 33.0724 40.0229 33.9638 40.0229 35.0596V36.2211C40.0229 36.9736 40.5038 37.6354 41.2196 37.868L43.8664 38.7278C44.0979 38.803 44.2533 39.017 44.2533 39.2603V40.0715C44.2535 40.625 43.8031 41.0754 43.2496 41.0754V41.0754Z" fill="white"/>
</svg>
